HIERARCHY
ROOT Hips
{
 OFFSET 0.000000 0.000000 0.000000
 CHANNELS 6 Xposition Yposition Zposition Yrotation Xrotation Zrotation
 JOINT Chest
 {
  OFFSET 0.000000 9.585900 0.002600
  CHANNELS 3 Yrotation Xrotation Zrotation
  JOINT Chest2
  {
   OFFSET 0.000000 9.601200 -0.005300
   CHANNELS 3 Yrotation Xrotation Zrotation
   JOINT Chest3
   {
    OFFSET 0.000000 9.561800 0.000000
    CHANNELS 3 Yrotation Xrotation Zrotation
    JOINT Chest4
    {
     OFFSET 0.000000 9.552100 0.000000
     CHANNELS 3 Yrotation Xrotation Zrotation
     JOINT Neck
     {
      OFFSET 0.000000 14.453000 0.000000
      CHANNELS 3 Yrotation Xrotation Zrotation
      JOINT Head
      {
       OFFSET 0.000000 8.936500 -0.011300
       CHANNELS 3 Yrotation Xrotation Zrotation
       End Site
       {
        OFFSET 0.000000 17.073600 -0.006000
       }
      }
     }
     JOINT RightCollar
     {
      OFFSET -2.921100 9.558500 0.000000
      CHANNELS 3 Yrotation Xrotation Zrotation
      JOINT RightShoulder
      {
       OFFSET -13.519700 0.000000 0.000000
       CHANNELS 3 Yrotation Xrotation Zrotation
       JOINT RightElbow
       {
        OFFSET 0.000000 -29.696600 0.000000
        CHANNELS 3 Yrotation Xrotation Zrotation
        JOINT RightWrist
        {
         OFFSET 0.000000 -24.004700 0.000000
         CHANNELS 3 Yrotation Xrotation Zrotation
         End Site
         {
          OFFSET 0.000000 -17.728500 0.000000
         }
        }
       }
      }
     }
     JOINT LeftCollar
     {
      OFFSET 2.921100 9.558500 0.000000
      CHANNELS 3 Yrotation Xrotation Zrotation
      JOINT LeftShoulder
      {
       OFFSET 13.519700 0.000000 0.000000
       CHANNELS 3 Yrotation Xrotation Zrotation
       JOINT LeftElbow
       {
        OFFSET 0.000000 -29.696600 0.000000
        CHANNELS 3 Yrotation Xrotation Zrotation
        JOINT LeftWrist
        {
         OFFSET 0.000000 -24.004700 0.000000
         CHANNELS 3 Yrotation Xrotation Zrotation
         End Site
         {
          OFFSET 0.000000 -17.728500 0.000000
         }
        }
       }
      }
     }
    }
   }
  }
 }
 JOINT RightHip
 {
  OFFSET -7.771700 -0.012900 -0.001300
  CHANNELS 3 Yrotation Xrotation Zrotation
  JOINT RightKnee
  {
   OFFSET 0.000000 -40.869800 0.001200
   CHANNELS 3 Yrotation Xrotation Zrotation
   JOINT RightAnkle
   {
    OFFSET 0.000000 -39.717900 0.002100
    CHANNELS 3 Yrotation Xrotation Zrotation
    JOINT RightToe
    {
     OFFSET 0.000000 -4.965400 11.033500
     CHANNELS 3 Yrotation Xrotation Zrotation
     End Site
     {
      OFFSET 0.000000 -1.423100 5.872300
     }
    }
   }
  }
 }
 JOINT LeftHip
 {
  OFFSET 7.771700 -0.012900 -0.001300
  CHANNELS 3 Yrotation Xrotation Zrotation
  JOINT LeftKnee
  {
   OFFSET 0.000000 -40.869800 0.001200
   CHANNELS 3 Yrotation Xrotation Zrotation
   JOINT LeftAnkle
   {
    OFFSET 0.000000 -39.717900 0.002100
    CHANNELS 3 Yrotation Xrotation Zrotation
    JOINT LeftToe
    {
     OFFSET 0.000000 -4.965400 11.033500
     CHANNELS 3 Yrotation Xrotation Zrotation
     End Site
     {
      OFFSET 0.000000 -1.423100 5.872300
     }
    }
   }
  }
 }
}
MOTION
Frames: 12
Frame Time: 0.008333
0.000000 85.388000 0.000000 0.000000 -5.767877 0.000000 0.000000 11.653817 0.000000 0.000000 -5.885947 0.000000 0.000000 -0.000000 0.000000 0.000000 -0.000000 0.000000 0.000000 12.528835 0.000000 0.000000 0.711642 0.000000 0.000000 -0.000000 0.000000 0.000000 0.000000 -90.000000 0.000000 -2.309062 0.000000 0.000000 2.309062 0.000000 0.000000 -0.000000 0.000000 0.000000 -0.000000 90.000000 0.000000 -2.309062 0.000000 0.000000 2.309062 0.000000 0.000000 8.520406 0.000000 0.000000 1.905762 0.000000 -0.000000 -4.658285 0.000000 0.000000 -0.000000 0.000000 0.000000 8.520406 0.000000 0.000000 1.905762 0.000000 -0.000000 -4.658285 0.000000 0.000000 -0.000000 0.000000
-5.621897 52.338303 30.023916 173.275605 -38.305779 -2.125125 3.730334 23.331771 2.792158 0.454304 3.492952 0.519598 0.747147 5.622120 0.851530 3.080940 19.498078 3.407807 0.212555 15.376084 -1.135523 0.723798 -7.306478 -2.212862 -4.548799 0.274747 -2.847913 0.522375 -10.161481 2.949027 165.211158 -77.567863 -152.794323 1.232339 -14.650457 -17.105049 -6.215228 0.560125 -0.493109 1.878023 -9.492969 3.007351 -146.215003 -69.192970 150.648717 -0.181417 -27.257099 10.812966 -3.284572 -42.961094 2.631145 -123.184278 83.213698 -119.531582 -0.535988 -10.751329 -1.181495 0.872679 -1.209696 0.362414 1.359827 -39.238917 4.832148 65.179920 84.307791 54.176013 -6.663527 -12.447754 11.305656 0.443584 1.153144 0.152911
-5.621087 52.339312 30.024110 173.248872 -38.298979 -2.087648 3.745644 23.330179 2.776522 0.453293 3.491641 0.517367 0.752059 5.627182 0.856371 3.093746 19.507232 3.417841 0.237897 15.400380 -1.125889 0.833932 -7.205081 -2.193298 -4.551640 0.284009 -2.850678 0.492537 -10.145663 2.919653 165.238386 -77.250764 -152.821820 1.226982 -14.659966 -17.126095 -6.197910 0.581670 -0.468697 1.959591 -9.490404 2.959115 -145.190311 -68.350827 149.886218 -0.077349 -27.968364 11.190223 -3.272452 -42.969117 2.596102 -123.271950 83.228292 -119.618792 -0.508100 -10.759258 -1.187757 0.848708 -1.205456 0.350878 1.345935 -39.241080 4.803550 65.270752 84.280928 54.251857 -6.631559 -12.441507 11.299110 0.425209 1.145755 0.132865
-5.616961 52.341309 30.023848 173.221364 -38.298414 -2.068212 3.769479 23.332642 2.780136 0.457801 3.497320 0.523284 0.757954 5.642419 0.864016 3.086676 19.496779 3.411064 0.268936 15.434595 -1.112763 0.904299 -7.128934 -2.176897 -4.533737 0.313928 -2.851132 0.456983 -10.166933 2.901196 165.081218 -76.900466 -152.676280 1.235884 -14.670604 -17.156798 -6.176896 0.604331 -0.445517 2.057531 -9.493012 2.923693 -144.449312 -67.513744 149.362205 0.060117 -28.687234 11.528187 -3.275272 -42.969865 2.585286 -123.359824 83.243146 -119.704503 -0.468821 -10.755743 -1.193783 0.814019 -1.211962 0.335745 1.327059 -39.240483 4.787715 65.352919 84.256965 54.357154 -6.640472 -12.439917 11.250664 0.458967 1.153867 0.144696
-5.611290 52.343203 30.024073 173.194286 -38.295537 -2.059966 3.795557 23.339808 2.794570 0.458381 3.510083 0.530249 0.756689 5.622544 0.853885 3.088723 19.497540 3.412863 0.306922 15.484501 -1.093807 0.954585 -7.064897 -2.161699 -4.531831 0.320811 -2.851744 0.448232 -10.156515 2.886505 164.861363 -76.505818 -152.473174 1.251416 -14.685681 -17.185391 -6.169456 0.612874 -0.436591 2.181271 -9.481496 2.918595 -143.978101 -66.703666 149.065125 0.226052 -29.383521 11.822645 -3.285132 -42.971568 2.583516 -123.443908 83.264093 -119.771251 -0.444836 -10.746721 -1.220418 0.799846 -1.221138 0.327821 1.297266 -39.242368 4.788803 65.461237 84.233673 54.479280 -6.633420 -12.444095 11.217417 0.466695 1.162568 0.145253
-5.601726 52.345364 30.024596 173.131208 -38.295785 -2.055955 3.852372 23.353425 2.841184 0.462178 3.501314 0.522726 0.763603 5.629039 0.855840 3.094724 19.503055 3.415310 0.336622 15.525228 -1.077163 1.006357 -6.993276 -2.145652 -4.538498 0.311835 -2.853045 0.437536 -10.132545 2.854801 164.708731 -76.067853 -152.337776 1.269721 -14.707121 -17.205616 -6.167853 0.606250 -0.430329 2.300702 -9.479293 2.928235 -143.733735 -65.928860 148.959574 0.414119 -30.026065 12.091120 -3.295868 -42.970555 2.618689 -123.566960 83.283569 -119.880769 -0.376783 -10.757246 -1.233430 0.743614 -1.212151 0.298600 1.285079 -39.242531 4.825143 65.549594 84.215037 54.579123 -6.587035 -12.432610 11.194411 0.428488 1.152119 0.149621
-5.597610 52.346955 30.024700 173.087194 -38.293231 -2.035413 3.883976 23.361441 2.853107 0.465610 3.492221 0.516954 0.763416 5.657515 0.870092 3.105442 19.507453 3.414516 0.362569 15.556713 -1.068067 1.056384 -6.919268 -2.129731 -4.550441 0.303754 -2.853960 0.400640 -10.106961 2.799490 164.708933 -75.591001 -152.327943 1.291321 -14.732640 -17.219869 -6.167903 0.593485 -0.417906 2.412191 -9.493986 2.938539 -143.671120 -65.189247 149.004169 0.617412 -30.598880 12.352272 -3.287061 -42.974243 2.612839 -123.649969 83.303434 -119.947127 -0.353320 -10.750175 -1.252553 0.726534 -1.217783 0.289868 1.269934 -39.244866 4.825046 65.670140 84.195811 54.705854 -6.562876 -12.431563 11.163113 0.425953 1.150541 0.154020
-5.594276 52.348259 30.024731 173.035057 -38.291150 -2.009908 3.921846 23.372442 2.863187 0.471030 3.493282 0.522530 0.763484 5.647145 0.861816 3.110830 19.516033 3.418673 0.393412 15.613770 -1.052168 1.106078 -6.846485 -2.113265 -4.574474 0.346828 -2.846138 0.411665 -10.158836 2.780288 164.502350 -75.122148 -152.135455 1.313946 -14.766045 -17.233278 -6.155271 0.602116 -0.399675 2.501880 -9.516326 2.962727 -143.753218 -64.484720 149.168102 0.826873 -31.102908 12.616819 -3.272681 -42.976612 2.611830 -123.705128 83.321968 -119.989901 -0.334038 -10.750388 -1.271720 0.712296 -1.215260 0.285430 1.261082 -39.248069 4.824420 65.797875 84.177223 54.839236 -6.543381 -12.421816 11.152789 0.428176 1.140592 0.136046
-5.587311 52.348038 30.026953 172.993793 -38.276690 -2.019133 3.960648 23.371093 2.900760 0.472179 3.495864 0.521175 0.766807 5.652861 0.862628 3.120823 19.523483 3.420690 0.418256 15.653190 -1.037701 1.156664 -6.776980 -2.097730 -4.592596 0.346406 -2.844576 0.381020 -10.161619 2.749990 164.474311 -74.615257 -152.091129 1.327443 -14.815938 -17.248182 -6.154990 0.595103 -0.378237 2.583956 -9.550372 3.000008 -143.942145 -63.816492 149.424440 1.038864 -31.547204 12.888166 -3.307781 -42.986336 2.647115 -123.801198 83.362613 -120.061276 -0.332208 -10.740627 -1.320749 0.710787 -1.218189 0.289335 1.253893 -39.265436 4.859812 65.815260 84.176746 54.879985 -6.547178 -12.427698 11.124390 0.450046 1.147375 0.141985
-5.584365 52.348749 30.026737 172.965671 -38.276193 -2.015633 3.978122 23.386269 2.913819 0.479006 3.499660 0.525049 0.768080 5.659373 0.862456 3.121084 19.566751 3.424705 0.439316 15.635395 -1.036233 1.210618 -6.695206 -2.080779 -4.604521 0.306550 -2.848653 0.263288 -10.144236 2.700459 164.665480 -74.076229 -152.189409 1.323663 -14.888277 -17.259425 -6.167835 0.560169 -0.340664 2.667176 -9.601941 3.028541 -144.204657 -63.180563 149.750698 1.253200 -31.939950 13.164022 -3.303673 -42.986273 2.663878 -123.805777 83.368990 -120.056384 -0.332130 -10.738899 -1.332261 0.710292 -1.218802 0.293595 1.221465 -39.267166 4.864460 65.944405 84.156171 55.022670 -6.530758 -12.434015 11.084053 0.455489 1.155991 0.151861
-5.584139 52.348132 30.027145 172.933960 -38.268227 -1.998827 3.997553 23.386109 2.914146 0.473216 3.511357 0.526218 0.761476 5.694737 0.866783 3.134614 19.549821 3.420624 0.446877 15.614710 -1.040780 1.270577 -6.586050 -2.059747 -4.620187 0.299113 -2.853034 0.213713 -10.154586 2.679261 164.605963 -73.523386 -152.101630 1.309975 -14.985065 -17.265074 -6.169743 0.531497 -0.335388 2.708210 -9.634036 3.097627 -144.522812 -62.567401 150.132573 1.468892 -32.286103 13.433137 -3.300491 -42.993355 2.662044 -123.853948 83.385144 -120.087093 -0.351150 -10.748936 -1.362951 0.734567 -1.209399 0.302806 1.184250 -39.279305 4.834985 66.263107 84.101582 55.345736 -6.458248 -12.439485 11.070659 0.407320 1.159380 0.132196
-5.581195 52.347865 30.026947 172.910320 -38.267568 -2.007053 4.010646 23.409904 2.936924 0.478672 3.507460 0.522750 0.762448 5.705784 0.871842 3.140119 19.559489 3.422505 0.471267 15.641889 -1.034943 1.305694 -6.534925 -2.052010 -4.633425 0.281733 -2.862096 0.117414 -10.143885 2.639467 164.662633 -72.938339 -152.091856 1.295765 -15.102771 -17.268486 -6.173660 0.499435 -0.333539 2.727667 -9.669532 3.170609 -144.884207 -61.972056 150.555214 1.682552 -32.593655 13.683905 -3.333815 -42.988771 2.693053 -123.885140 83.401349 -120.110244 -0.348517 -10.755701 -1.394360 0.740734 -1.205690 0.312558 1.172114 -39.283753 4.846811 66.359693 84.091172 55.464975 -6.452973 -12.446344 11.040086 0.413356 1.167624 0.147501
